<svg width="1559" height="1559" xmlns="http://www.w3.org/2000/svg" xmlns:xlink="http://www.w3.org/1999/xlink" xml:space="preserve" overflow="hidden"><defs><linearGradient x1="518" y1="243" x2="2077" y2="1802" gradientUnits="userSpaceOnUse" spreadMethod="reflect" id="fill0"><stop offset="0" stop-color="#FF6600"/><stop offset="0.74" stop-color="#FF0066"/><stop offset="1" stop-color="#7030A0"/></linearGradient></defs><g transform="translate(-518 -243)"><path d="M518 502.838C518 359.334 634.334 243 777.839 243L1817.16 243C1960.67 243 2077 359.334 2077 502.838L2077 1542.16C2077 1685.67 1960.67 1802 1817.16 1802L777.839 1802C634.334 1802 518 1685.67 518 1542.16Z" fill="url(#fill0)" fill-rule="evenodd"/><path d="M1298 436C1639.86 436 1917 703.062 1917 1032.5 1917 1361.94 1639.86 1629 1298 1629 956.135 1629 679 1361.94 679 1032.5 679 703.062 956.135 436 1298 436ZM1371.58 599.288C1091.12 599.288 863.762 823.598 863.762 1100.3 863.762 1377 1091.12 1601.31 1371.58 1601.31 1652.04 1601.31 1879.39 1377 1879.39 1100.3 1879.39 823.598 1652.04 599.288 1371.58 599.288Z" fill="#FFFFFF" fill-rule="evenodd"/><g><g><g><path d="M59.9271 163.438 261.5 163.438 463.073 163.438 463.073 98.0625 59.9271 98.0625Z" fill="#FFFFFF" transform="matrix(1 0 0 1.05545 1220 769)"/><path d="M59.9271 294.188 261.5 294.188 463.073 294.188 463.073 228.813 59.9271 228.813Z" fill="#FFFFFF" transform="matrix(1 0 0 1.05545 1220 769)"/><path d="M59.9271 424.938 261.5 424.938 463.073 424.938 463.073 359.563 59.9271 359.563Z" fill="#FFFFFF" transform="matrix(1 0 0 1.05545 1220 769)"/></g></g></g><g><g><g><path d="M179.781 365.01 179.781 77.5892 228.153 125.961C234.646 132.232 244.993 132.052 251.263 125.56 257.381 119.226 257.381 109.185 251.263 102.851L174.992 26.5804C168.61 20.2001 158.265 20.2001 151.882 26.5804L75.6116 102.851C69.3411 109.344 69.5208 119.691 76.0131 125.961 82.3469 132.078 92.3879 132.078 98.7217 125.961L147.094 77.5892 147.094 365.01C147.094 374.037 154.411 381.354 163.437 381.354 172.464 381.354 179.781 374.037 179.781 365.01Z" fill="#FFFFFF" transform="matrix(1 0 0 1.05545 968 898)"/><path d="M375.906 157.99 375.906 445.411 424.278 397.039C430.771 390.768 441.118 390.948 447.388 397.44 453.505 403.774 453.505 413.815 447.388 420.149L371.117 496.419C364.735 502.8 354.39 502.8 348.007 496.419L271.737 420.149C265.466 413.656 265.646 403.309 272.138 397.039 278.472 390.922 288.513 390.922 294.847 397.039L343.219 445.411 343.219 157.99C343.219 148.963 350.536 141.646 359.562 141.646 368.589 141.646 375.906 148.963 375.906 157.99Z" fill="#FFFFFF" transform="matrix(1 0 0 1.05545 968 898)"/></g></g></g></g></svg>